<?xml version="1.0" encoding="UTF-8" standalone="no"?>
<!-- Created with Inkscape (http://www.inkscape.org/) -->

<svg
   xmlns:dc="http://purl.org/dc/elements/1.1/"
   xmlns:cc="http://creativecommons.org/ns#"
   xmlns:rdf="http://www.w3.org/1999/02/22-rdf-syntax-ns#"
   xmlns:svg="http://www.w3.org/2000/svg"
   xmlns="http://www.w3.org/2000/svg"
   xmlns:sodipodi="http://sodipodi.sourceforge.net/DTD/sodipodi-0.dtd"
   xmlns:inkscape="http://www.inkscape.org/namespaces/inkscape"
   width="45.720001mm"
   height="128.5mm"
   viewBox="0 0 45.720002 128.5"
   version="1.1"
   id="svg8"
   inkscape:version="0.92.4 (5da689c313, 2019-01-14)"
   sodipodi:docname="Mum.svg">
  <defs
     id="defs2" />
  <sodipodi:namedview
     id="base"
     pagecolor="#ffffff"
     bordercolor="#666666"
     borderopacity="1.0"
     inkscape:pageopacity="0.0"
     inkscape:pageshadow="2"
     inkscape:zoom="1.5772049"
     inkscape:cx="86.400002"
     inkscape:cy="242.83465"
     inkscape:document-units="mm"
     inkscape:current-layer="layer1"
     showgrid="false"
     inkscape:showpageshadow="false"
     inkscape:window-width="1680"
     inkscape:window-height="986"
     inkscape:window-x="0"
     inkscape:window-y="27"
     inkscape:window-maximized="1" />
  <metadata
     id="metadata5">
    <rdf:RDF>
      <cc:Work
         rdf:about="">
        <dc:format>image/svg+xml</dc:format>
        <dc:type
           rdf:resource="http://purl.org/dc/dcmitype/StillImage" />
        <dc:title />
      </cc:Work>
    </rdf:RDF>
  </metadata>
  <g
     inkscape:label="panel"
     inkscape:groupmode="layer"
     id="layer1"
     transform="translate(0,-168.5)"
     style="display:inline">
    <rect
       id="rect3713"
       width="45.720001"
       height="128.5"
       x="0"
       y="168.5"
       style="fill:#d5f6ff;stroke-width:0.95944977"
       inkscape:label="background" />
    <g
       inkscape:label="logo"
       transform="matrix(0.05036065,0,0,0.050285,20.701615,280.32844)"
       id="g1070"
       style="display:inline">
      <path
         inkscape:label="face-fill"
         sodipodi:nodetypes="cccscccsccccscc"
         inkscape:connector-curvature="0"
         id="path5912"
         d="m 14.98868,184.77015 c -10.5846059,-8e-5 -19.1651649,8.58046 -19.1650779,19.16509 0.0079,3.46001 0.951431,6.85348 2.731794,9.82029 -14.9807161,9.76853 -31.9787901,24.9568 -31.9787901,45.48078 0,6.29269 0.979801,11.77111 2.754789,16.54138 19.150062,-15.47065 48.908787,-23.91629 73.527186,-23.9312 24.617726,0.0323 54.369866,8.49435 73.508769,23.97777 1.78608,-4.7812 2.77321,-10.27468 2.77321,-16.58795 0,-21.44849 -18.02156,-37.06913 -34.026343,-46.76704 1.32766,-2.6494 2.02282,-5.5706 2.03086,-8.53403 8e-5,-10.58463 -8.58047,-19.16517 -19.16508,-19.16509 -9.398011,0.0114 -17.401104,6.83599 -18.897114,16.11418 -2.106345,-0.17568 -4.186396,-0.26623 -6.224302,-0.26623 -2.904836,0 -5.894371,0.17969 -8.925621,0.53647 -1.378833,-9.40318 -9.440553,-16.37555 -18.94428,-16.38442 z"
         clip-path="none"
         style="display:inline;fill:#ff7f2a;fill-opacity:1;stroke:none;stroke-width:8.83189011;stroke-miterlimit:4;stroke-dasharray:none;stroke-opacity:1" />
      <path
         inkscape:label="chin-fill"
         inkscape:connector-curvature="0"
         id="path5958"
         d="m 42.86291,251.84649 c -23.077107,0.0141 -55.844803,7.43621 -75.63109,21.10856 5.500568,31.33375 44.838064,33.1236 75.63109,33.1236 30.776767,0 70.08909,-1.78809 75.62244,-33.07415 C 98.709807,259.31631 65.942427,251.87678 42.86291,251.84649 Z"
         clip-path="none"
         style="display:inline;fill:#ffccaa;fill-opacity:1;stroke:none;stroke-width:8.83189011;stroke-miterlimit:4;stroke-dasharray:none;stroke-opacity:1" />
      <path
         clip-path="none"
         inkscape:label="face-outline"
         sodipodi:nodetypes="cccsssccccscc"
         inkscape:connector-curvature="0"
         id="circle823"
         d="m 14.988691,184.77015 c -10.5846169,-8e-5 -19.1651629,8.58046 -19.1650809,19.16509 0.0075,3.46001 0.951415,6.85348 2.731791,9.82029 -14.9807161,9.76853 -31.9787941,30.84472 -31.9787901,51.36871 0,38.87761 43.1020531,40.95441 76.28197,40.95441 33.179926,0 76.281979,-2.07681 76.281979,-40.95441 0,-21.44849 -18.02157,-42.95706 -34.026343,-52.65497 1.32765,-2.6494 2.02282,-5.5706 2.03087,-8.53403 8e-5,-10.58463 -8.58047,-19.16517 -19.16508,-19.16509 -9.398011,0.0114 -17.401114,6.83599 -18.897124,16.11418 -2.106335,-0.17568 -4.186407,-0.26623 -6.224302,-0.26623 -2.904826,0 -5.894358,0.17969 -8.925607,0.53647 -1.378831,-9.40318 -9.440553,-16.37555 -18.944283,-16.38442 z"
         style="display:inline;fill:none;fill-opacity:1;stroke:#000000;stroke-width:8.83189011;stroke-miterlimit:4;stroke-dasharray:none;stroke-opacity:1" />
      <path
         inkscape:label="eyes"
         style="color:#000000;font-style:normal;font-variant:normal;font-weight:normal;font-stretch:normal;font-size:medium;line-height:normal;font-family:sans-serif;font-variant-ligatures:normal;font-variant-position:normal;font-variant-caps:normal;font-variant-numeric:normal;font-variant-alternates:normal;font-feature-settings:normal;text-indent:0;text-align:start;text-decoration:none;text-decoration-line:none;text-decoration-style:solid;text-decoration-color:#000000;letter-spacing:normal;word-spacing:normal;text-transform:none;writing-mode:lr-tb;direction:ltr;text-orientation:mixed;dominant-baseline:auto;baseline-shift:baseline;text-anchor:start;white-space:normal;shape-padding:0;clip-rule:nonzero;display:inline;overflow:visible;visibility:visible;opacity:1;isolation:auto;mix-blend-mode:normal;color-interpolation:sRGB;color-interpolation-filters:linearRGB;solid-color:#000000;solid-opacity:1;vector-effect:none;fill:#000000;fill-opacity:1;fill-rule:nonzero;stroke:none;stroke-width:8.83189011;stroke-linecap:round;stroke-linejoin:miter;stroke-miterlimit:4;stroke-dasharray:none;stroke-dashoffset:0;stroke-opacity:1;color-rendering:auto;image-rendering:auto;shape-rendering:auto;text-rendering:auto;enable-background:accumulate"
         d="m 24.784385,212.00047 c -9.816719,0 -17.1671127,8.99836 -17.1671075,19.238 a 4.4174759,4.4174759 0 1 0 8.8349515,0 c 0,-6.13364 4.064092,-10.41027 8.332156,-10.41027 a 4.4163852,4.4163852 0 1 0 0,-8.82773 z m 36.140198,0 a 4.4163852,4.4163852 0 1 0 0,8.82773 c 4.268069,0 8.342411,4.27663 8.342411,10.41027 a 4.4163852,4.4163852 0 1 0 8.824696,0 c 0,-10.23964 -7.350388,-19.238 -17.167107,-19.238 z"
         id="circle827"
         inkscape:connector-curvature="0" />
      <path
         inkscape:label="nose"
         sodipodi:nodetypes="ssss"
         inkscape:connector-curvature="0"
         id="rect915"
         d="m 30.887331,234.58286 c 3.054125,-6.45051 20.88837,-6.45051 23.942506,0 2.159598,4.5612 -6.32795,10.47298 -11.971256,10.47298 -5.643303,0 -14.130848,-5.91178 -11.97125,-10.47298 z"
         style="display:inline;fill:#a05a2c;fill-opacity:1;stroke:#000000;stroke-width:8.83189011;stroke-linecap:round;stroke-miterlimit:4;stroke-dasharray:none;stroke-opacity:1" />
      <g
         inkscape:label="chortle"
         style="display:inline"
         transform="matrix(1.1126787,0,0,1.1126787,-73.97268,144.9571)"
         id="g5916">
        <path
           inkscape:label="mouth"
           style="display:inline;fill:#ffffff;fill-opacity:1;stroke:#000000;stroke-width:7.9375;stroke-linecap:round;stroke-miterlimit:4;stroke-dasharray:none;stroke-opacity:1"
           d="m 126.18104,108.45957 c 0,5.84898 1.06881,13.12862 -4.08712,17.35851 -5.15593,4.22989 -11.24494,8.58503 -17.09392,8.58503 -5.848979,0 -11.937986,-4.35514 -17.093916,-8.58503 -5.155929,-4.22989 -4.087114,-11.50953 -4.087114,-17.35851 0,-11.697983 9.483071,1.5731 21.18103,1.5731 11.69796,0 21.18104,-13.271113 21.18104,-1.5731 z"
           id="path4617"
           inkscape:connector-curvature="0"
           sodipodi:nodetypes="sssssss" />
        <path
           inkscape:label="tooth-gap"
           style="display:inline;fill:none;stroke:#000000;stroke-width:7.9375;stroke-linecap:round;stroke-linejoin:miter;stroke-miterlimit:4;stroke-dasharray:none;stroke-opacity:1"
           d="m 105,111.77529 v 19.86999"
           id="path4609"
           inkscape:connector-curvature="0"
           sodipodi:nodetypes="cc" />
      </g>
    </g>
    <path
       id="path193"
       style="font-style:normal;font-variant:normal;font-weight:normal;font-stretch:normal;font-size:10.66666698px;line-height:1.25;font-family:'Francois One';-inkscape-font-specification:'Francois One, Normal';font-variant-ligatures:normal;font-variant-caps:normal;font-variant-numeric:normal;font-feature-settings:normal;text-align:center;letter-spacing:0px;word-spacing:0px;writing-mode:lr-tb;text-anchor:middle;fill:#000000;fill-opacity:1;stroke:none;stroke-width:0.26458332"
       d="m 33.44951,175.84216 h 1.07487 l -0.03307,0.33073 h -0.628386 v 0.50436 h 0.445107 l -0.0014,0.35554 h -0.443729 v 0.59531 h 0.683507 l -0.03307,0.33073 h -1.063827 z m -1.502062,0.33073 0.03307,-0.33073 h 1.240234 l -0.03307,0.33073 h -0.395496 v 1.7694 l -0.413412,0.0331 v -1.80248 z m -1.46072,-0.31419 0.413411,-0.0165 v 1.45246 q 0,0.0634 0.0041,0.12677 0.0041,0.0634 0.02618,0.11438 0.02343,0.051 0.0689,0.0841 0.04685,0.0317 0.132291,0.0317 0.07993,0 0.122646,-0.0331 0.0441,-0.0331 0.06477,-0.0854 0.02067,-0.0524 0.02343,-0.11575 0.0041,-0.0648 0.0041,-0.12678 v -1.41525 l 0.378961,-0.0331 v 1.37115 q 0,0.0606 -0.0028,0.14332 -0.0028,0.0813 -0.02067,0.1695 -0.01654,0.0868 -0.05512,0.17363 -0.03859,0.0854 -0.111621,0.15296 -0.07166,0.0675 -0.184657,0.10887 -0.111621,0.0413 -0.275608,0.0413 -0.152962,0 -0.264583,-0.0593 -0.110243,-0.0606 -0.183279,-0.16123 -0.07166,-0.10197 -0.106109,-0.23702 -0.03445,-0.13505 -0.03445,-0.28388 z m -1.876888,0.52365 v 1.55994 l -0.341754,0.0165 v -2.09737 l 0.604959,-0.0165 0.350021,1.30914 0.336242,-1.26229 0.552593,-0.0331 v 2.08359 l -0.427192,0.0331 v -1.5875 l -0.395497,1.57096 h -0.254937 z"
       inkscape:connector-curvature="0"
       inkscape:label="mute" />
    <path
       id="path147"
       style="font-style:normal;font-variant:normal;font-weight:normal;font-stretch:normal;font-size:10.66666698px;line-height:1.25;font-family:'Francois One';-inkscape-font-specification:'Francois One, Normal';font-variant-ligatures:normal;font-variant-caps:normal;font-variant-numeric:normal;font-feature-settings:normal;text-align:center;letter-spacing:0px;word-spacing:0px;writing-mode:lr-tb;text-anchor:middle;fill:#000000;fill-opacity:1;stroke:none;stroke-width:0.26458332"
       d="m 41.907869,176.19012 0.03307,-0.33072 h 1.240234 l -0.03307,0.33072 h -0.395496 v 1.76941 l -0.413412,0.0331 v -1.80248 z m -1.46072,-0.31419 0.413411,-0.0165 v 1.45245 q 0,0.0634 0.0041,0.12678 0.0041,0.0634 0.02618,0.11437 0.02343,0.051 0.0689,0.0841 0.04685,0.0317 0.132291,0.0317 0.07993,0 0.122646,-0.0331 0.0441,-0.0331 0.06477,-0.0854 0.02067,-0.0524 0.02343,-0.11576 0.0041,-0.0648 0.0041,-0.12678 v -1.41524 l 0.378961,-0.0331 v 1.37114 q 0,0.0606 -0.0028,0.14332 -0.0028,0.0813 -0.02067,0.1695 -0.01654,0.0868 -0.05512,0.17363 -0.03858,0.0854 -0.111621,0.15296 -0.07166,0.0675 -0.184657,0.10887 -0.111621,0.0413 -0.275608,0.0413 -0.152962,0 -0.264583,-0.0593 -0.110243,-0.0606 -0.183279,-0.16123 -0.07166,-0.10197 -0.106109,-0.23702 -0.03445,-0.13505 -0.03445,-0.28388 z m -0.957737,2.14423 q -0.135048,0 -0.237022,-0.0455 -0.100597,-0.0455 -0.173633,-0.12678 -0.07304,-0.0813 -0.11989,-0.19154 -0.04685,-0.11162 -0.07441,-0.24116 -0.02756,-0.13091 -0.03859,-0.27561 -0.01103,-0.14469 -0.01103,-0.29352 0,-0.22324 0.03721,-0.41341 0.03859,-0.19017 0.118511,-0.32522 0.07993,-0.13505 0.202572,-0.20808 0.124023,-0.0744 0.296278,-0.0744 0.172255,0 0.296278,0.0744 0.125402,0.073 0.205328,0.20808 0.0813,0.13505 0.118511,0.32522 0.03859,0.19017 0.03859,0.41341 0,0.14883 -0.01103,0.29352 -0.01103,0.1447 -0.03996,0.27561 -0.02756,0.12954 -0.07579,0.24116 -0.04685,0.11024 -0.11989,0.19154 -0.07304,0.0813 -0.175011,0.12678 -0.101974,0.0455 -0.237022,0.0455 z m 0,-0.3514 q 0.08268,0 0.130914,-0.0565 0.04961,-0.0579 0.07441,-0.16399 0.02618,-0.10748 0.03307,-0.25907 0.0069,-0.15296 0.0069,-0.34313 0,-0.0661 -0.0028,-0.1378 -0.0014,-0.073 -0.0096,-0.15021 -0.0083,-0.0786 -0.0248,-0.15158 -0.01516,-0.073 -0.04272,-0.12816 -0.02756,-0.0565 -0.0689,-0.0896 -0.03996,-0.0344 -0.09646,-0.0344 -0.0565,0 -0.09646,0.0344 -0.03996,0.0331 -0.06752,0.0896 -0.02618,0.0551 -0.04272,0.12816 -0.01516,0.073 -0.02343,0.15158 -0.0083,0.0772 -0.01103,0.15021 -0.0014,0.0717 -0.0014,0.1378 0,0.19017 0.0069,0.34313 0.0069,0.15159 0.0317,0.25907 0.0248,0.10611 0.07304,0.16399 0.04823,0.0565 0.130914,0.0565 z m -0.858518,-0.0896 v 0.38034 l -0.396875,0.0331 v -0.41341 z m -1.90307,-1.70326 0.489203,-0.0165 0.28112,1.46072 0.293522,-1.44419 0.398253,-0.0165 -0.509874,2.11666 h -0.453375 z"
       inkscape:connector-curvature="0"
       inkscape:label="v.out" />
    <path
       id="path185"
       style="font-style:normal;font-variant:normal;font-weight:normal;font-stretch:normal;font-size:10.66666698px;line-height:1.25;font-family:'Francois One';-inkscape-font-specification:'Francois One, Normal';font-variant-ligatures:normal;font-variant-caps:normal;font-variant-numeric:normal;font-feature-settings:normal;text-align:center;letter-spacing:0px;word-spacing:0px;writing-mode:lr-tb;text-anchor:middle;fill:#000000;fill-opacity:1;stroke:none;stroke-width:0.26458332"
       d="m 15.095482,176.195 0.03307,-0.33072 h 1.240235 l -0.03307,0.33072 H 15.94022 v 1.76941 l -0.413411,0.0331 v -1.80248 z m -1.204406,-0.33072 h 1.07487 l -0.03307,0.33072 h -0.628385 v 0.50437 h 0.445106 l -0.0014,0.35553 h -0.443728 v 0.59531 h 0.683507 l -0.03307,0.33073 H 13.89106 Z m -0.682129,0.54432 q -0.0248,-0.0524 -0.04685,-0.0992 -0.02067,-0.0469 -0.04961,-0.0827 -0.02756,-0.0358 -0.06752,-0.0565 -0.03996,-0.0207 -0.101975,-0.0207 -0.04823,0 -0.08544,0.0179 -0.03583,0.0179 -0.05926,0.0482 -0.02343,0.0303 -0.03583,0.0703 -0.01103,0.04 -0.01103,0.0841 0,0.0358 0.01103,0.0675 0.01103,0.0317 0.02894,0.0579 0.01929,0.0262 0.04272,0.0482 0.02343,0.0207 0.04685,0.0345 l 0.341754,0.19982 q 0.121267,0.0689 0.198437,0.14469 0.07717,0.0758 0.119889,0.15021 0.0441,0.0744 0.06063,0.14469 0.01654,0.0689 0.01929,0.12541 0,0.15296 -0.05237,0.27974 -0.05099,0.1254 -0.141938,0.21497 -0.09095,0.0896 -0.214974,0.13918 -0.122645,0.0482 -0.265961,0.0482 -0.132292,0 -0.242535,-0.04 -0.110243,-0.04 -0.197059,-0.11024 -0.08544,-0.0717 -0.148828,-0.16812 -0.06201,-0.0978 -0.100597,-0.21084 l 0.350022,-0.16399 q 0.03032,0.0496 0.06615,0.11024 0.03583,0.0593 0.07993,0.11162 0.0441,0.051 0.100597,0.0854 0.0565,0.0345 0.130913,0.0345 0.03721,0 0.07028,-0.0165 0.03445,-0.0179 0.05926,-0.0469 0.02618,-0.0303 0.04134,-0.0675 0.01654,-0.0386 0.01654,-0.0799 0,-0.0841 -0.04134,-0.14745 -0.03996,-0.0634 -0.09922,-0.10197 l -0.370693,-0.21911 q -0.07717,-0.0441 -0.141938,-0.1006 -0.06339,-0.0565 -0.111621,-0.12402 -0.04685,-0.0689 -0.07304,-0.14745 -0.02618,-0.0786 -0.02618,-0.16812 0,-0.14056 0.04961,-0.25632 0.05099,-0.11713 0.137804,-0.20119 0.08819,-0.0841 0.208084,-0.12954 0.121268,-0.0469 0.261827,-0.0469 0.214974,0 0.367937,0.11024 0.152962,0.10887 0.225998,0.31971 l -0.350022,0.15848 z"
       inkscape:connector-curvature="0"
       inkscape:label="set" />
    <path
       id="path137"
       style="font-style:normal;font-variant:normal;font-weight:normal;font-stretch:normal;font-size:10.66666698px;line-height:1.25;font-family:'Francois One';-inkscape-font-specification:'Francois One, Normal';font-variant-ligatures:normal;font-variant-caps:normal;font-variant-numeric:normal;font-feature-settings:normal;text-align:center;letter-spacing:0px;word-spacing:0px;writing-mode:lr-tb;text-anchor:middle;fill:#000000;fill-opacity:1;stroke:none;stroke-width:0.26458332"
       d="m 25.020041,176.58223 q -0.0055,-0.04 -0.01103,-0.0868 -0.0041,-0.0482 -0.01378,-0.0965 -0.0083,-0.0496 -0.02205,-0.0951 -0.01378,-0.0455 -0.03721,-0.0799 -0.02343,-0.0358 -0.05788,-0.0565 -0.03445,-0.022 -0.08268,-0.022 -0.05512,0 -0.09646,0.0372 -0.04134,0.0358 -0.07166,0.0965 -0.03032,0.0606 -0.04961,0.14194 -0.01929,0.0799 -0.03032,0.16811 -0.01103,0.0868 -0.01654,0.17777 -0.0041,0.0896 -0.0041,0.1695 0,0.0758 0.0014,0.16123 0.0014,0.0854 0.0083,0.1695 0.0083,0.0841 0.02343,0.16123 0.01654,0.0772 0.04685,0.13643 0.03032,0.0579 0.07717,0.0937 0.04685,0.0344 0.114377,0.0344 0.05512,0 0.09646,-0.0303 0.04272,-0.0317 0.07166,-0.0868 0.02894,-0.0551 0.04272,-0.13091 0.01516,-0.0758 0.01516,-0.16399 h -0.209461 l 0.03307,-0.35829 h 0.574641 v 1.0418 l -0.158474,0.0165 q -0.0014,-0.006 -0.0069,-0.0262 -0.0041,-0.0207 -0.01103,-0.0482 -0.0069,-0.0289 -0.01654,-0.0634 -0.0083,-0.0344 -0.01654,-0.0703 -0.02067,-0.0827 -0.04547,-0.18466 -0.0096,0.12265 -0.05926,0.21911 -0.02067,0.0413 -0.05374,0.0799 -0.0317,0.0386 -0.07855,0.0703 -0.04685,0.0303 -0.110243,0.0482 -0.06339,0.0193 -0.146072,0.0193 -0.111621,0 -0.201194,-0.0427 -0.08819,-0.0414 -0.155718,-0.11576 -0.06615,-0.0758 -0.114377,-0.17914 -0.04685,-0.10474 -0.07717,-0.22738 -0.03032,-0.12402 -0.0441,-0.26183 -0.01378,-0.13918 -0.01378,-0.28387 0,-0.12265 0.01516,-0.25081 0.01654,-0.12815 0.04961,-0.24942 0.03445,-0.12265 0.08819,-0.23014 0.05374,-0.10748 0.129536,-0.18879 0.07717,-0.0813 0.177767,-0.12815 0.100597,-0.0469 0.227376,-0.0469 0.161231,0 0.276986,0.062 0.115755,0.0606 0.190169,0.1626 0.07441,0.10198 0.110243,0.23565 0.03583,0.13229 0.03583,0.27561 z m -1.627464,-0.68489 0.413412,-0.0331 v 2.10013 l -0.413412,0.0331 z m -1.593012,2.10013 v -2.11666 l 0.501606,-0.0165 q 0.173633,0 0.316949,0.0344 0.143316,0.0331 0.245291,0.10611 0.103353,0.0717 0.158474,0.18328 0.0565,0.11162 0.0565,0.26596 0,0.10335 -0.02205,0.18603 -0.02205,0.0827 -0.06201,0.14745 -0.03996,0.0648 -0.09646,0.11438 -0.05512,0.0496 -0.122646,0.0882 0,0.001 0.01654,0.0413 0.01654,0.04 0.04272,0.10473 0.02756,0.0648 0.06063,0.14745 0.03445,0.0827 0.07028,0.16812 0.08406,0.20119 0.191548,0.45613 l -0.406522,0.11024 -0.377582,-0.96462 h -0.161231 v 0.91088 z m 0.412034,-1.24988 h 0.14056 q 0.06201,0 0.118511,-0.01 0.0565,-0.011 0.09922,-0.0413 0.0441,-0.0317 0.0689,-0.0882 0.02618,-0.0565 0.02618,-0.15021 0,-0.0744 -0.02067,-0.12402 -0.01929,-0.051 -0.05512,-0.0813 -0.03445,-0.0317 -0.08268,-0.0441 -0.04685,-0.0138 -0.101975,-0.0138 h -0.192924 z m -1.914095,-0.55259 0.03307,-0.33073 h 1.240235 l -0.03307,0.33073 h -0.395497 v 1.7694 l -0.413411,0.0331 v -1.80247 z"
       inkscape:connector-curvature="0"
       inkscape:label="trig" />
    <path
       id="path121"
       style="font-style:normal;font-variant:normal;font-weight:normal;font-stretch:normal;font-size:10.66666698px;line-height:1.25;font-family:'Francois One';-inkscape-font-specification:'Francois One, Normal';font-variant-ligatures:normal;font-variant-caps:normal;font-variant-numeric:normal;font-feature-settings:normal;text-align:center;letter-spacing:0px;word-spacing:0px;writing-mode:lr-tb;text-anchor:middle;fill:#000000;fill-opacity:1;stroke:none;stroke-width:0.26458332"
       d="m 6.9898871,176.66624 v 1.28985 l -0.369315,0.0165 v -2.10013 l 0.431327,-0.0165 0.545703,1.25953 v -1.22645 l 0.350021,-0.0331 v 2.10013 l -0.338997,0.0331 z m -1.172711,-0.77721 0.413412,-0.0331 v 2.10013 l -0.413412,0.0331 z m -0.330729,1.68672 v 0.38034 l -0.396875,0.0331 v -0.41341 z m -1.903071,-1.70326 0.489204,-0.0165 0.28112,1.46072 0.293522,-1.44419 0.398253,-0.0165 -0.509874,2.11666 h -0.453375 z"
       inkscape:connector-curvature="0"
       inkscape:label="v.in" />
    <path
       style="font-style:normal;font-variant:normal;font-weight:normal;font-stretch:normal;font-size:16px;line-height:1.25;font-family:Sniglet;-inkscape-font-specification:'Sniglet, Normal';font-variant-ligatures:normal;font-variant-caps:normal;font-variant-numeric:normal;font-feature-settings:normal;text-align:center;letter-spacing:0px;word-spacing:0px;writing-mode:lr-tb;text-anchor:middle;fill:#ff0000;fill-opacity:1;stroke:none;stroke-width:0.26458332"
       inkscape:connector-curvature="0"
       d="m 26.589077,171.32784 q 0.02963,-0.25824 0.127001,-0.46144 0.04233,-0.0847 0.1016,-0.1651 0.05927,-0.0847 0.139699,-0.14816 0.08043,-0.0677 0.186267,-0.10584 0.105834,-0.0423 0.2413,-0.0423 0.207434,0 0.359833,0.1016 0.156634,0.1016 0.258234,0.22437 0.118533,0.1397 0.2032,0.32173 0.1143,0.2667 0.173566,0.5334 0.0635,0.26247 0.09313,0.47837 0.03387,0.254 0.0381,0.48683 0.0042,0.1778 -0.02117,0.31327 -0.02117,0.13546 -0.0635,0.23283 -0.04233,0.0974 -0.1016,0.1651 -0.05503,0.0635 -0.118533,0.10583 -0.143934,0.0974 -0.3302,0.1016 -0.1651,0 -0.2921,-0.055 -0.122767,-0.0593 -0.2159,-0.1524 -0.0889,-0.0974 -0.1524,-0.2159 -0.05927,-0.12277 -0.09737,-0.24977 -0.09313,-0.29633 -0.09737,-0.6731 -0.02117,0.24977 -0.0889,0.37677 -0.0635,0.127 -0.135466,0.1778 -0.08467,0.0635 -0.186267,0.055 -0.1651,0 -0.258233,-0.0931 -0.09313,-0.0974 -0.1397,-0.2159 -0.05503,-0.13547 -0.06773,-0.30903 0,0.25823 -0.03387,0.4572 -0.02963,0.19473 -0.08043,0.33866 -0.0508,0.1397 -0.118533,0.23707 -0.0635,0.0974 -0.131233,0.16087 -0.160867,0.14393 -0.364067,0.16086 -0.160867,0 -0.2794,-0.0381 -0.1143,-0.0381 -0.198967,-0.0974 -0.08467,-0.0635 -0.1397,-0.14394 -0.05503,-0.0804 -0.0889,-0.1651 -0.0762,-0.19896 -0.0762,-0.44873 0,-0.3429 0.04657,-0.62653 0.0508,-0.28787 0.110067,-0.4953 0.07197,-0.2413 0.160866,-0.43604 0.110067,-0.254 0.262467,-0.37676 0.1524,-0.127 0.287867,-0.1778 0.160867,-0.0593 0.325966,-0.0508 0.143934,0 0.254,0.0423 0.1143,0.0381 0.194734,0.1016 0.08043,0.0635 0.135467,0.14817 0.05503,0.0804 0.0889,0.1651 0.08043,0.2032 0.0889,0.4572 z m -4.47708,-0.89324 q 0.1524,0.008 0.270933,0.0804 0.1016,0.0593 0.186267,0.1905 0.0889,0.13123 0.0889,0.37253 0,0.18203 -0.0042,0.34713 -0.0042,0.16087 0.0085,0.28787 0.0127,0.12277 0.04657,0.19897 0.0381,0.072 0.1143,0.072 0.0762,0 0.110066,-0.072 0.0381,-0.0762 0.0508,-0.19897 0.0127,-0.127 0.0085,-0.28787 -0.0042,-0.1651 -0.0085,-0.34713 -0.0042,-0.11853 0.01693,-0.20743 0.0254,-0.0931 0.06773,-0.16087 0.04233,-0.0677 0.09313,-0.11007 0.05503,-0.0466 0.110066,-0.072 0.131234,-0.0635 0.300567,-0.0635 0.2159,-0.0127 0.347133,0.0593 0.135467,0.072 0.211667,0.16087 0.08467,0.11007 0.127,0.24553 0.07197,0.32174 0.07197,0.6223 0.0042,0.29634 -0.0254,0.52917 -0.03387,0.27093 -0.09737,0.51223 -0.0889,0.25824 -0.262467,0.46144 -0.0762,0.0847 -0.1778,0.16933 -0.09737,0.0804 -0.232833,0.14393 -0.131233,0.0635 -0.300567,0.1016 -0.1651,0.0381 -0.3683,0.0381 -0.173567,0 -0.3175,-0.0296 -0.1397,-0.0254 -0.258233,-0.0677 -0.118533,-0.0423 -0.211667,-0.0974 -0.09313,-0.055 -0.1651,-0.11007 -0.169333,-0.13123 -0.2667,-0.29633 -0.08043,-0.13547 -0.131233,-0.28363 -0.0508,-0.1524 -0.08467,-0.3048 -0.02963,-0.15664 -0.04657,-0.3048 -0.0127,-0.1524 -0.0127,-0.2921 -0.0042,-0.32597 0.04233,-0.64347 0.0508,-0.2667 0.1651,-0.39793 0.114301,-0.13547 0.232834,-0.1905 0.1397,-0.0635 0.300567,-0.055 z m -2.947789,0.89324 q 0.02963,-0.25824 0.127,-0.46144 0.04233,-0.0847 0.1016,-0.1651 0.05927,-0.0847 0.1397,-0.14816 0.08043,-0.0677 0.186267,-0.10584 0.105833,-0.0423 0.2413,-0.0423 0.207433,0 0.359833,0.1016 0.156633,0.1016 0.258233,0.22437 0.118534,0.1397 0.2032,0.32173 0.1143,0.2667 0.173567,0.5334 0.0635,0.26247 0.09313,0.47837 0.03387,0.254 0.0381,0.48683 0.0042,0.1778 -0.02117,0.31327 -0.02117,0.13546 -0.0635,0.23283 -0.04233,0.0974 -0.1016,0.1651 -0.05503,0.0635 -0.118534,0.10583 -0.143933,0.0974 -0.3302,0.1016 -0.1651,0 -0.2921,-0.055 -0.122766,-0.0593 -0.2159,-0.1524 -0.0889,-0.0974 -0.1524,-0.2159 -0.05927,-0.12277 -0.09737,-0.24977 -0.09313,-0.29633 -0.09737,-0.6731 -0.02117,0.24977 -0.0889,0.37677 -0.0635,0.127 -0.135467,0.1778 -0.08467,0.0635 -0.186266,0.055 -0.1651,0 -0.258234,-0.0931 -0.09313,-0.0974 -0.1397,-0.2159 -0.05503,-0.13547 -0.06773,-0.30903 0,0.25823 -0.03387,0.4572 -0.02963,0.19473 -0.08043,0.33866 -0.0508,0.1397 -0.118533,0.23707 -0.0635,0.0974 -0.131234,0.16087 -0.160866,0.14393 -0.364066,0.16086 -0.160867,0 -0.2794,-0.0381 -0.1143,-0.0381 -0.198967,-0.0974 -0.08467,-0.0635 -0.1397,-0.14394 -0.05503,-0.0804 -0.0889,-0.1651 -0.0762,-0.19896 -0.0762,-0.44873 0,-0.3429 0.04657,-0.62653 0.0508,-0.28787 0.110066,-0.4953 0.07197,-0.2413 0.160867,-0.43604 0.110067,-0.254 0.262467,-0.37676 0.1524,-0.127 0.287867,-0.1778 0.160866,-0.0593 0.325966,-0.0508 0.143934,0 0.254,0.0423 0.1143,0.0381 0.194733,0.1016 0.08043,0.0635 0.135467,0.14817 0.05503,0.0804 0.0889,0.1651 0.08043,0.2032 0.0889,0.4572 z"
       id="path556"
       inkscape:label="MUM"
       sodipodi:insensitive="true" />
    <path
       id="path256"
       style="display:inline;fill:#baeffe;fill-opacity:1;stroke:none;stroke-width:0.03086589;stroke-linecap:butt;stroke-linejoin:round;stroke-miterlimit:4;stroke-dasharray:none;stroke-dashoffset:0;stroke-opacity:1"
       d="M 40.190999,282.73863 H 5.5290022 v -0.99994 H 40.190999 Z m 0,-10.99748 H 5.5290022 v -0.99994 H 40.190999 Z m 0,-10.99748 H 5.5290022 v -0.99994 H 40.190999 Z m 0,-10.99748 H 5.5290022 v -0.99994 H 40.190999 Z m 0,-10.99748 H 5.5290022 v -0.99994 H 40.190999 Z m 0,-10.99748 H 5.5290022 v -0.99994 H 40.190999 Z m 0,-10.99748 H 5.5290022 v -0.99994 H 40.190999 Z m 0,-10.99748 H 5.5290022 v -0.99994 H 40.190999 Z m 0,-10.99748 H 5.5290022 v -0.99994 H 40.190999 Z m 0,-10.99748 H 5.5290022 v -0.99994 H 40.190999 Z"
       inkscape:connector-curvature="0" />
  </g>
  <g
     inkscape:groupmode="layer"
     id="layer3"
     inkscape:label="labels as text"
     style="display:none"
     sodipodi:insensitive="true">
    <flowRoot
       xml:space="preserve"
       id="flowRoot23"
       style="font-style:normal;font-variant:normal;font-weight:normal;font-stretch:normal;font-size:16px;line-height:1.25;font-family:Sniglet;-inkscape-font-specification:'Sniglet, Normal';font-variant-ligatures:normal;font-variant-caps:normal;font-variant-numeric:normal;font-feature-settings:normal;text-align:center;letter-spacing:0px;word-spacing:0px;writing-mode:lr-tb;text-anchor:middle;fill:#ff0000;fill-opacity:1;stroke:none"
       transform="matrix(0.26458333,0,0,0.26458333,10.551563,-4.6311428)"
       inkscape:label="MUM"><flowRegion
         id="flowRegion25"
         style="font-style:normal;font-variant:normal;font-weight:normal;font-stretch:normal;font-size:16px;font-family:Sniglet;-inkscape-font-specification:'Sniglet, Normal';font-variant-ligatures:normal;font-variant-caps:normal;font-variant-numeric:normal;font-feature-settings:normal;text-align:center;writing-mode:lr-tb;text-anchor:middle;fill:#ff0000"><rect
           id="rect27"
           width="52.624748"
           height="20.289055"
           x="20.289057"
           y="22.191147"
           style="font-style:normal;font-variant:normal;font-weight:normal;font-stretch:normal;font-size:16px;font-family:Sniglet;-inkscape-font-specification:'Sniglet, Normal';font-variant-ligatures:normal;font-variant-caps:normal;font-variant-numeric:normal;font-feature-settings:normal;text-align:center;writing-mode:lr-tb;text-anchor:middle;fill:#ff0000" /></flowRegion><flowPara
         id="flowPara29">MUM</flowPara></flowRoot>    <flowRoot
       xml:space="preserve"
       id="flowRoot53"
       style="font-style:normal;font-variant:normal;font-weight:normal;font-stretch:normal;font-size:10.66666698px;line-height:1.25;font-family:'Francois One';-inkscape-font-specification:'Francois One, Normal';font-variant-ligatures:normal;font-variant-caps:normal;font-variant-numeric:normal;font-feature-settings:normal;text-align:center;letter-spacing:0px;word-spacing:0px;writing-mode:lr-tb;text-anchor:middle;display:inline;fill:#000000;fill-opacity:1;stroke:none"
       transform="matrix(0.26458333,0,0,0.26458333,-14.426893,22.646867)"
       inkscape:label="labels"><flowRegion
         id="flowRegion55"
         style="font-style:normal;font-variant:normal;font-weight:normal;font-stretch:normal;font-size:10.66666698px;font-family:'Francois One';-inkscape-font-specification:'Francois One, Normal';font-variant-ligatures:normal;font-variant-caps:normal;font-variant-numeric:normal;font-feature-settings:normal;text-align:center;writing-mode:lr-tb;text-anchor:middle"><rect
           id="rect57"
           width="153.43599"
           height="332.23331"
           x="10.144528"
           y="136.95111"
           style="font-style:normal;font-variant:normal;font-weight:normal;font-stretch:normal;font-size:10.66666698px;font-family:'Francois One';-inkscape-font-specification:'Francois One, Normal';font-variant-ligatures:normal;font-variant-caps:normal;font-variant-numeric:normal;font-feature-settings:normal;text-align:center;writing-mode:lr-tb;text-anchor:middle" /></flowRegion><flowPara
         id="flowPara59">V.IN</flowPara><flowPara
         id="flowPara61">SET</flowPara><flowPara
         id="flowPara63">TRIG</flowPara><flowPara
         id="flowPara171">MUTE</flowPara><flowPara
         id="flowPara65">V.OUT</flowPara></flowRoot>  </g>
  <g
     inkscape:groupmode="layer"
     id="layer2"
     inkscape:label="components"
     style="display:none"
     sodipodi:insensitive="true">
    <circle
       r="4.178"
       cy="14.761342"
       cx="39.954498"
       id="circle3951"
       style="fill:#0000ff;stroke-width:0.17115745"
       inkscape:label="voltage1" />
    <circle
       style="fill:#ff0000;stroke-width:0.0975409"
       id="circle4092"
       cx="31.407248"
       cy="14.761342"
       r="2.381"
       inkscape:label="mute_button1" />
    <circle
       r="4.178"
       cy="14.761342"
       cx="22.860001"
       id="circle3953"
       style="fill:#00ff00;stroke-width:0.17115745"
       inkscape:label="trigger1" />
    <circle
       r="2.381"
       cy="14.761342"
       cx="14.312749"
       id="circle4090"
       style="fill:#ff0000;stroke-width:0.0975409"
       inkscape:label="toggle_button1" />
    <circle
       style="fill:#00ff00;stroke-width:0.17115745"
       id="path3915"
       cx="5.7654996"
       cy="14.761342"
       r="4.178"
       inkscape:label="voltage1" />
    <circle
       inkscape:label="voltage2"
       style="fill:#0000ff;stroke-width:0.17115745"
       id="circle219"
       cx="39.954498"
       cy="25.758821"
       r="4.178" />
    <circle
       inkscape:label="mute_button2"
       r="2.381"
       cy="25.758821"
       cx="31.407248"
       id="circle221"
       style="fill:#ff0000;stroke-width:0.0975409" />
    <circle
       inkscape:label="trigger2"
       style="fill:#00ff00;stroke-width:0.17115745"
       id="circle223"
       cx="22.860001"
       cy="25.758821"
       r="4.178" />
    <circle
       inkscape:label="toggle_button2"
       style="fill:#ff0000;stroke-width:0.0975409"
       id="circle225"
       cx="14.312749"
       cy="25.758821"
       r="2.381" />
    <circle
       inkscape:label="voltage2"
       r="4.178"
       cy="25.758821"
       cx="5.7654996"
       id="circle227"
       style="fill:#00ff00;stroke-width:0.17115745" />
    <circle
       r="4.178"
       cy="36.756302"
       cx="39.954498"
       id="circle231"
       style="fill:#0000ff;stroke-width:0.17115745"
       inkscape:label="voltage3" />
    <circle
       style="fill:#ff0000;stroke-width:0.0975409"
       id="circle233"
       cx="31.407248"
       cy="36.756302"
       r="2.381"
       inkscape:label="mute_button3" />
    <circle
       r="4.178"
       cy="36.756302"
       cx="22.860001"
       id="circle235"
       style="fill:#00ff00;stroke-width:0.17115745"
       inkscape:label="trigger3" />
    <circle
       r="2.381"
       cy="36.756302"
       cx="14.312749"
       id="circle237"
       style="fill:#ff0000;stroke-width:0.0975409"
       inkscape:label="toggle_button3" />
    <circle
       style="fill:#00ff00;stroke-width:0.17115745"
       id="circle239"
       cx="5.7654996"
       cy="36.756302"
       r="4.178"
       inkscape:label="voltage3" />
    <circle
       inkscape:label="voltage4"
       style="fill:#0000ff;stroke-width:0.17115745"
       id="circle243"
       cx="39.954498"
       cy="47.75378"
       r="4.178" />
    <circle
       inkscape:label="mute_button4"
       r="2.381"
       cy="47.75378"
       cx="31.407248"
       id="circle245"
       style="fill:#ff0000;stroke-width:0.0975409" />
    <circle
       inkscape:label="trigger4"
       style="fill:#00ff00;stroke-width:0.17115745"
       id="circle247"
       cx="22.860001"
       cy="47.75378"
       r="4.178" />
    <circle
       inkscape:label="toggle_button4"
       style="fill:#ff0000;stroke-width:0.0975409"
       id="circle249"
       cx="14.312749"
       cy="47.75378"
       r="2.381" />
    <circle
       inkscape:label="voltage4"
       r="4.178"
       cy="47.75378"
       cx="5.7654996"
       id="circle251"
       style="fill:#00ff00;stroke-width:0.17115745" />
    <circle
       r="4.178"
       cy="58.751259"
       cx="39.954498"
       id="circle255"
       style="fill:#0000ff;stroke-width:0.17115745"
       inkscape:label="voltage5" />
    <circle
       style="fill:#ff0000;stroke-width:0.0975409"
       id="circle257"
       cx="31.407248"
       cy="58.751259"
       r="2.381"
       inkscape:label="mute_button5" />
    <circle
       r="4.178"
       cy="58.751259"
       cx="22.860001"
       id="circle259"
       style="fill:#00ff00;stroke-width:0.17115745"
       inkscape:label="trigger5" />
    <circle
       r="2.381"
       cy="58.751259"
       cx="14.312749"
       id="circle261"
       style="fill:#ff0000;stroke-width:0.0975409"
       inkscape:label="toggle_button5" />
    <circle
       style="fill:#00ff00;stroke-width:0.17115745"
       id="circle263"
       cx="5.7654996"
       cy="58.751259"
       r="4.178"
       inkscape:label="voltage5" />
    <circle
       inkscape:label="voltage6"
       style="fill:#0000ff;stroke-width:0.17115745"
       id="circle267"
       cx="39.954498"
       cy="69.748741"
       r="4.178" />
    <circle
       inkscape:label="mute_button6"
       r="2.381"
       cy="69.748741"
       cx="31.407248"
       id="circle269"
       style="fill:#ff0000;stroke-width:0.0975409" />
    <circle
       inkscape:label="trigger6"
       style="fill:#00ff00;stroke-width:0.17115745"
       id="circle271"
       cx="22.860001"
       cy="69.748741"
       r="4.178" />
    <circle
       inkscape:label="toggle_button6"
       style="fill:#ff0000;stroke-width:0.0975409"
       id="circle273"
       cx="14.312749"
       cy="69.748741"
       r="2.381" />
    <circle
       inkscape:label="voltage6"
       r="4.178"
       cy="69.748741"
       cx="5.7654996"
       id="circle275"
       style="fill:#00ff00;stroke-width:0.17115745" />
    <circle
       r="4.178"
       cy="80.746223"
       cx="39.954498"
       id="circle279"
       style="fill:#0000ff;stroke-width:0.17115745"
       inkscape:label="voltage7" />
    <circle
       style="fill:#ff0000;stroke-width:0.0975409"
       id="circle281"
       cx="31.407248"
       cy="80.746223"
       r="2.381"
       inkscape:label="mute_button7" />
    <circle
       r="4.178"
       cy="80.746223"
       cx="22.860001"
       id="circle283"
       style="fill:#00ff00;stroke-width:0.17115745"
       inkscape:label="trigger7" />
    <circle
       r="2.381"
       cy="80.746223"
       cx="14.312749"
       id="circle285"
       style="fill:#ff0000;stroke-width:0.0975409"
       inkscape:label="toggle_button7" />
    <circle
       style="fill:#00ff00;stroke-width:0.17115745"
       id="circle287"
       cx="5.7654996"
       cy="80.746223"
       r="4.178"
       inkscape:label="voltage7" />
    <circle
       inkscape:label="voltage8"
       style="fill:#0000ff;stroke-width:0.17115745"
       id="circle291"
       cx="39.954498"
       cy="91.743698"
       r="4.178" />
    <circle
       inkscape:label="mute_button8"
       r="2.381"
       cy="91.743698"
       cx="31.407248"
       id="circle293"
       style="fill:#ff0000;stroke-width:0.0975409" />
    <circle
       inkscape:label="trigger8"
       style="fill:#00ff00;stroke-width:0.17115745"
       id="circle295"
       cx="22.860001"
       cy="91.743698"
       r="4.178" />
    <circle
       inkscape:label="toggle_button8"
       style="fill:#ff0000;stroke-width:0.0975409"
       id="circle297"
       cx="14.312749"
       cy="91.743698"
       r="2.381" />
    <circle
       inkscape:label="voltage8"
       r="4.178"
       cy="91.743698"
       cx="5.7654996"
       id="circle299"
       style="fill:#00ff00;stroke-width:0.17115745" />
    <circle
       r="4.178"
       cy="102.74118"
       cx="39.954498"
       id="circle303"
       style="fill:#0000ff;stroke-width:0.17115745"
       inkscape:label="voltage9" />
    <circle
       style="fill:#ff0000;stroke-width:0.0975409"
       id="circle305"
       cx="31.407248"
       cy="102.74118"
       r="2.381"
       inkscape:label="mute_button9" />
    <circle
       r="4.178"
       cy="102.74118"
       cx="22.860001"
       id="circle307"
       style="fill:#00ff00;stroke-width:0.17115745"
       inkscape:label="trigger9" />
    <circle
       r="2.381"
       cy="102.74118"
       cx="14.312749"
       id="circle309"
       style="fill:#ff0000;stroke-width:0.0975409"
       inkscape:label="toggle_button9" />
    <circle
       style="fill:#00ff00;stroke-width:0.17115745"
       id="circle311"
       cx="5.7654996"
       cy="102.74118"
       r="4.178"
       inkscape:label="voltage9" />
    <circle
       inkscape:label="voltage10"
       style="fill:#0000ff;stroke-width:0.17115745"
       id="circle315"
       cx="39.954498"
       cy="113.73866"
       r="4.178" />
    <circle
       inkscape:label="mute_button10"
       r="2.381"
       cy="113.73866"
       cx="31.407248"
       id="circle317"
       style="fill:#ff0000;stroke-width:0.0975409" />
    <circle
       inkscape:label="trigger10"
       style="fill:#00ff00;stroke-width:0.17115745"
       id="circle319"
       cx="22.860001"
       cy="113.73866"
       r="4.178" />
    <circle
       inkscape:label="toggle_button10"
       style="fill:#ff0000;stroke-width:0.0975409"
       id="circle321"
       cx="14.312749"
       cy="113.73866"
       r="2.381" />
    <circle
       inkscape:label="voltage10"
       r="4.178"
       cy="113.73866"
       cx="5.7654996"
       id="circle323"
       style="fill:#00ff00;stroke-width:0.17115745" />
  </g>
</svg>
